<svg width="439.81997070312497px" height="124.439990234375px" xmlns="http://www.w3.org/2000/svg" viewBox="30.090014648437517 12.780004882812499 439.81997070312497 124.439990234375" style="background: rgba(0, 0, 0, 0) none repeat scroll 0% 0%;" preserveAspectRatio="xMidYMid"><defs><filter id="editing-extrusion" x="-100%" y="-100%" width="300%" height="300%"><feFlood result="color1" flood-color="#444"></feFlood><feConvolveMatrix order="8,8" divisor="1" kernelMatrix="1 0 0 0 0 0 0 0 0 1 0 0 0 0 0 0 0 0 1 0 0 0 0 0 0 0 0 1 0 0 0 0 0 0 0 0 1 0 0 0 0 0 0 0 0 1 0 0 0 0 0 0 0 0 1 0 0 0 0 0 0 0 0 1" in="SourceAlpha" result="extrude"></feConvolveMatrix><feComposite in="color1" in2="extrude" result="comp-extrude" operator="in"></feComposite><feOffset dx="4" dy="4" in="comp-extrude" result="offset-extrude"></feOffset><feMerge><feMergeNode in="offset-extrude"></feMergeNode><feMergeNode in="SourceGraphic"></feMergeNode></feMerge></filter></defs><g filter="url(#editing-extrusion)"><g transform="translate(97.01056671142578, 97.46484375)"><path d="M14.21 0L0.51 0L8.32-42.05L8.32-42.05Q14.66-42.75 23.90-42.75L23.90-42.75L23.90-42.75Q33.15-42.75 37.44-40.06L37.44-40.06L37.44-40.06Q41.73-37.38 41.73-31.97L41.73-31.97L41.73-31.97Q41.73-26.56 38.94-23.17L38.94-23.17L38.94-23.17Q36.16-19.78 31.36-18.69L31.36-18.69L31.36-18.69Q32.45-13.38 34.94-9.09L34.94-9.09L34.94-9.09Q37.25-5.06 39.94-3.78L39.94-3.78L39.94-3.78Q38.98-1.09 37.02 0.10L37.02 0.10L37.02 0.10Q35.07 1.28 32.29 1.28L32.29 1.28L32.29 1.28Q29.50 1.28 27.33-0.35L27.33-0.35L27.33-0.35Q25.15-1.98 23.42-4.99L23.42-4.99L23.42-4.99Q19.78-11.52 19.39-21.82L19.39-21.82L19.84-21.82L19.84-21.82Q24.58-21.95 26.94-24.42L26.94-24.42L26.94-24.42Q29.31-26.88 29.31-32.06L29.31-32.06L29.31-32.06Q29.31-38.53 23.87-38.78L23.87-38.78L22.46-38.78L22.46-38.78Q21.89-38.78 21.57-38.72L21.57-38.72L14.21 0ZM70.59-10.82L70.59-10.82L70.59-10.82Q72.19-9.73 72.19-7.33L72.19-7.33L72.19-7.33Q72.19-4.93 70.98-3.39L70.98-3.39L70.98-3.39Q69.76-1.86 67.78-0.83L67.78-0.83L67.78-0.83Q63.68 1.28 59.26 1.28L59.26 1.28L59.26 1.28Q54.85 1.28 52.26 0.32L52.26 0.32L52.26 0.32Q49.66-0.64 47.94-2.43L47.94-2.43L47.94-2.43Q44.54-5.82 44.54-12.03L44.54-12.03L44.54-12.03Q44.54-21.70 49.79-27.58L49.79-27.58L49.79-27.58Q55.42-33.92 65.22-33.92L65.22-33.92L65.22-33.92Q71.30-33.92 74.30-31.36L74.30-31.36L74.30-31.36Q76.54-29.44 76.54-26.30L76.54-26.30L76.54-26.30Q76.54-15.04 57.09-15.04L57.09-15.04L57.09-15.04Q56.83-13.38 56.83-11.97L56.83-11.97L56.83-11.97Q56.83-9.02 58.14-7.90L58.14-7.90L58.14-7.90Q59.46-6.78 61.89-6.78L61.89-6.78L61.89-6.78Q64.32-6.78 66.91-7.90L66.91-7.90L66.91-7.90Q69.50-9.02 70.59-10.82ZM57.54-17.79L57.54-17.79L57.54-17.79Q62.08-17.79 64.70-20.61L64.70-20.61L64.70-20.61Q67.33-23.30 67.33-27.58L67.33-27.58L67.33-27.58Q67.33-29.06 66.78-29.86L66.78-29.86L66.78-29.86Q66.24-30.66 65.15-30.66L65.15-30.66L65.15-30.66Q64.06-30.66 63.14-30.24L63.14-30.24L63.14-30.24Q62.21-29.82 61.25-28.42L61.25-28.42L61.25-28.42Q58.88-25.22 57.54-17.79ZM81.50-1.92L81.50-1.92L81.50-1.92Q80-3.58 79.33-6.21L79.33-6.21L79.33-6.21Q78.66-8.83 78.66-13.12L78.66-13.12L78.66-13.12Q78.66-17.41 80.13-21.31L80.13-21.31L80.13-21.31Q81.60-25.22 84.29-28.03L84.29-28.03L84.29-28.03Q89.79-33.92 98.88-33.92L98.88-33.92L98.88-33.92Q102.14-33.92 104.51-32.83L104.51-32.83L115.46-33.92L110.72-8.96L110.72-8.96Q110.53-8.19 110.53-6.78L110.53-6.78L110.53-6.78Q110.53-5.38 111.39-4.48L111.39-4.48L111.39-4.48Q112.26-3.58 113.54-3.46L113.54-3.46L113.54-3.46Q112.90-1.28 110.56 0L110.56 0L110.56 0Q108.22 1.28 105.60 1.28L105.60 1.28L105.60 1.28Q102.98 1.28 101.22 0.29L101.22 0.29L101.22 0.29Q99.46-0.70 98.94-2.37L98.94-2.37L98.94-2.37Q97.92-0.77 95.74 0.26L95.74 0.26L95.74 0.26Q93.57 1.28 90.66 1.28L90.66 1.28L90.66 1.28Q87.74 1.28 85.38 0.51L85.38 0.51L85.38 0.51Q83.01-0.26 81.50-1.92ZM95.01-27.90L95.01-27.90L95.01-27.90Q94.27-26.75 93.63-24.80L93.63-24.80L93.63-24.80Q92.99-22.85 91.94-17.63L91.94-17.63L91.94-17.63Q90.88-12.42 90.88-8.70L90.88-8.70L90.88-8.70Q90.88-4.99 91.46-3.90L91.46-3.90L91.46-3.90Q92.03-2.82 93.06-2.82L93.06-2.82L93.06-2.82Q95.10-2.82 96.61-4.77L96.61-4.77L96.61-4.77Q98.11-6.72 98.69-10.18L98.69-10.18L102.08-28.93L102.08-28.93Q100.74-30.08 99.17-30.08L99.17-30.08L99.17-30.08Q97.60-30.08 96.67-29.57L96.67-29.57L96.67-29.57Q95.74-29.06 95.01-27.90ZM150.08-26.62L150.08-26.62L150.08-26.62Q150.08-23.94 147.84-22.27L147.84-22.27L147.84-22.27Q145.60-20.61 141.95-20.61L141.95-20.61L141.95-20.61Q140.42-20.61 139.52-21.06L139.52-21.06L139.52-21.06Q140.22-22.72 140.45-24.80L140.45-24.80L140.45-24.80Q140.67-26.88 140.67-27.46L140.67-27.46L140.67-27.46Q140.67-30.14 138.82-30.14L138.82-30.14L138.82-30.14Q137.54-30.14 136.10-28.54L136.10-28.54L136.10-28.54Q134.66-26.94 133.44-24.45L133.44-24.45L133.44-24.45Q130.75-18.69 130.75-12.86L130.75-12.86L130.75-12.86Q130.75-9.66 131.97-8.22L131.97-8.22L131.97-8.22Q133.18-6.78 135.87-6.78L135.87-6.78L135.87-6.78Q139.58-6.78 142.53-9.86L142.53-9.86L142.53-9.86Q143.36-10.82 143.81-11.90L143.81-11.90L143.81-11.90Q146.24-10.62 146.24-7.10L146.24-7.10L146.24-7.10Q146.24-3.52 142.27-1.15L142.27-1.15L142.27-1.15Q138.18 1.28 131.65 1.28L131.65 1.28L131.65 1.28Q118.66 1.28 118.66-12.48L118.66-12.48L118.66-12.48Q118.66-22.53 124.35-28.29L124.35-28.29L124.35-28.29Q129.86-33.92 139.97-33.92L139.97-33.92L139.97-33.92Q150.08-33.92 150.08-26.62ZM152.83-6.40L152.83-6.40L152.83-6.40Q152.83-8.13 153.73-12.48L153.73-12.48L157.12-29.76L153.34-29.76L153.60-31.68L153.60-31.68Q161.28-33.98 168.70-39.62L168.70-39.62L171.78-39.62L170.24-32.64L175.23-32.64L174.66-29.76L169.73-29.76L166.46-12.48L166.46-12.48Q165.63-8.51 165.63-7.17L165.63-7.17L165.63-7.17Q165.63-4.10 168.32-3.46L168.32-3.46L168.32-3.46Q167.68-1.28 165.38 0L165.38 0L165.38 0Q163.07 1.28 159.81 1.28L159.81 1.28L159.81 1.28Q156.54 1.28 154.69-0.77L154.69-0.77L154.69-0.77Q152.83-2.82 152.83-6.40ZM193.22-31.17L193.22-31.17L193.22-31.17Q191.04-32.83 191.04-36.38L191.04-36.38L191.04-36.38Q191.04-39.94 193.38-41.79L193.38-41.79L193.38-41.79Q195.71-43.65 199.74-43.65L199.74-43.65L199.74-43.65Q202.30-43.65 208.38-42.75L208.38-42.75L212.74-42.11L212.74-42.11Q214.91-41.86 217.18-41.86L217.18-41.86L217.18-41.86Q219.46-41.86 220.99-42.82L220.99-42.82L220.99-42.82Q223.30-40.77 223.30-37.82L223.30-37.82L223.30-37.82Q223.30-34.88 220.67-32.77L220.67-32.77L220.67-32.77Q217.98-30.53 214.53-30.53L214.53-30.53L214.53-30.53Q212.86-30.53 210.18-30.98L210.18-30.98L210.18-30.98Q207.04-21.12 207.04-14.27L207.04-14.27L207.04-14.27Q207.04-7.42 210.50-3.84L210.50-3.84L210.50-3.84Q208.90-0.96 206.53 0.16L206.53 0.16L206.53 0.16Q204.16 1.28 200.61 1.28L200.61 1.28L200.61 1.28Q197.06 1.28 194.85-0.67L194.85-0.67L194.85-0.67Q192.64-2.62 192.64-6.66L192.64-6.66L192.64-6.66Q192.64-11.33 195.20-19.01L195.20-19.01L195.20-19.01Q197.76-26.62 201.60-32.45L201.60-32.45L201.60-32.45Q199.74-32.64 197.82-32.64L197.82-32.64L197.82-32.64Q193.86-32.64 193.22-31.17ZM244.22-10.82L244.22-10.82L244.22-10.82Q245.82-9.73 245.82-7.33L245.82-7.33L245.82-7.33Q245.82-4.93 244.61-3.39L244.61-3.39L244.61-3.39Q243.39-1.86 241.41-0.83L241.41-0.83L241.41-0.83Q237.31 1.28 232.90 1.28L232.90 1.28L232.90 1.28Q228.48 1.28 225.89 0.32L225.89 0.32L225.89 0.32Q223.30-0.64 221.57-2.43L221.57-2.43L221.57-2.43Q218.18-5.82 218.18-12.03L218.18-12.03L218.18-12.03Q218.18-21.70 223.42-27.58L223.42-27.58L223.42-27.58Q229.06-33.92 238.85-33.92L238.85-33.92L238.85-33.92Q244.93-33.92 247.94-31.36L247.94-31.36L247.94-31.36Q250.18-29.44 250.18-26.30L250.18-26.30L250.18-26.30Q250.18-15.04 230.72-15.04L230.72-15.04L230.72-15.04Q230.46-13.38 230.46-11.97L230.46-11.97L230.46-11.97Q230.46-9.02 231.78-7.90L231.78-7.90L231.78-7.90Q233.09-6.78 235.52-6.78L235.52-6.78L235.52-6.78Q237.95-6.78 240.54-7.90L240.54-7.90L240.54-7.90Q243.14-9.02 244.22-10.82ZM231.17-17.79L231.17-17.79L231.17-17.79Q235.71-17.79 238.34-20.61L238.34-20.61L238.34-20.61Q240.96-23.30 240.96-27.58L240.96-27.58L240.96-27.58Q240.96-29.06 240.42-29.86L240.42-29.86L240.42-29.86Q239.87-30.66 238.78-30.66L238.78-30.66L238.78-30.66Q237.70-30.66 236.77-30.24L236.77-30.24L236.77-30.24Q235.84-29.82 234.88-28.42L234.88-28.42L234.88-28.42Q232.51-25.22 231.17-17.79ZM271.49-22.46L271.49-22.46L271.49-22.46Q272.38-24.83 272.38-26.88L272.38-26.88L272.38-26.88Q272.38-30.66 269.31-30.66L269.31-30.66L269.31-30.66Q267.71-30.66 266.40-29.22L266.40-29.22L266.40-29.22Q265.09-27.78 265.09-25.98L265.09-25.98L265.09-25.98Q265.09-24.70 266.11-23.68L266.11-23.68L266.11-23.68Q267.58-22.27 271.36-19.97L271.36-19.97L271.36-19.97Q275.14-17.66 276.58-15.78L276.58-15.78L276.58-15.78Q278.02-13.89 278.02-11.30L278.02-11.30L278.02-11.30Q278.02-8.70 276.77-6.34L276.77-6.34L276.77-6.34Q275.52-3.97 273.28-2.30L273.28-2.30L273.28-2.30Q268.48 1.28 260.80 1.28L260.80 1.28L260.80 1.28Q256.64 1.28 253.44-0.90L253.44-0.90L253.44-0.90Q250.24-3.01 250.24-5.50L250.24-5.50L250.24-5.50Q250.24-8 252.06-9.47L252.06-9.47L252.06-9.47Q253.89-10.94 256.58-10.94L256.58-10.94L256.58-10.94Q259.26-10.94 260.93-9.92L260.93-9.92L260.93-9.92Q260.10-7.81 260.10-6.40L260.10-6.40L260.10-6.40Q260.10-2.18 263.68-2.18L263.68-2.18L263.68-2.18Q265.22-2.18 266.24-3.14L266.24-3.14L266.24-3.14Q267.26-4.10 267.26-5.76L267.26-5.76L267.26-5.76Q267.26-9.02 261.76-12.48L261.76-12.48L261.76-12.48Q257.28-15.42 256.26-16.58L256.26-16.58L256.26-16.58Q254.53-18.62 254.53-21.18L254.53-21.18L254.53-21.18Q254.53-23.74 255.74-26.18L255.74-26.18L255.74-26.18Q256.96-28.61 259.20-30.34L259.20-30.34L259.20-30.34Q263.87-33.92 272.00-33.92L272.00-33.92L272.00-33.92Q276.16-33.92 278.62-32.26L278.62-32.26L278.62-32.26Q281.09-30.59 281.09-27.78L281.09-27.78L281.09-27.78Q281.09-24.96 279.39-23.36L279.39-23.36L279.39-23.36Q277.70-21.76 274.62-21.76L274.62-21.76L274.62-21.76Q272.51-21.76 271.49-22.46ZM284.48-6.40L284.48-6.40L284.48-6.40Q284.48-8.13 285.38-12.48L285.38-12.48L288.77-29.76L284.99-29.76L285.25-31.68L285.25-31.68Q292.93-33.98 300.35-39.62L300.35-39.62L303.42-39.62L301.89-32.64L306.88-32.64L306.30-29.76L301.38-29.76L298.11-12.48L298.11-12.48Q297.28-8.51 297.28-7.17L297.28-7.17L297.28-7.17Q297.28-4.10 299.97-3.46L299.97-3.46L299.97-3.46Q299.33-1.28 297.02 0L297.02 0L297.02 0Q294.72 1.28 291.46 1.28L291.46 1.28L291.46 1.28Q288.19 1.28 286.34-0.77L286.34-0.77L286.34-0.77Q284.48-2.82 284.48-6.40Z" fill="#ccc"></path></g></g><style>text {
  font-size: 64px;
  font-family: Arial Black;
  dominant-baseline: central;
  text-anchor: middle;
}</style></svg>